# xmcd
#
# Track frame offsets:
#	150
#	16927
#	30403
#	46026
#	61216
#	76874
#	90295
#	106304
#	124008
#	138630
#	156016
#	172803
#	184835
#	196826
#	210274
#	228961
#	247108
#	259620
#	274953
#	288497
#	302855
#	315461
#
# Disc length: 4442 seconds
#
# Revision: 1
# Processed by: cddbd v1.4PL0 Copyright (c) Steve Scherf et al.
# Submitted via: audiograbber 1.80
#
DISCID=19115816
DTITLE=Bailão dos Cafagestes - Vol. 10 - Sertanejo
DYEAR=1900
DGENRE=
TTITLE0=Bailão dos Cafagestes nº 10 - Estrela Guia
TTITLE1=Bailão dos Cafagestes nº 10 - Xote da Sereia
TTITLE2=Bailão dos Cafagestes nº 10 - Trim-Trim-Trim
TTITLE3=Bailão dos Cafagestes nº 10 - Bica D´Agua
TTITLE4=Bailão dos Cafagestes nº 10 - Não Foge da Raia
TTITLE5=Bailão dos Cafagestes nº 10 - Eu sou Feio mas tô na moda
TTITLE6=Bailão dos Cafagestes nº 10 - Olhar Cigano
TTITLE7=Bailão dos Cafagestes nº 10 - Jeito Manhoso
TTITLE8=Bailão dos Cafagestes nº 10 - Mas que saudade dela
TTITLE9=Bailão dos Cafagestes nº 10 - Mulher que não dá, Voa
TTITLE10=Bailão dos Cafagestes nº 10 - Ela chorou de amor
TTITLE11=Bailão dos Cafagestes nº 10 - Sapatiô, sapatiô
TTITLE12=Bailão dos Cafagestes nº 10 - O trem é bom
TTITLE13=Bailão dos Cafagestes nº 10 - Vamo E.T.
TTITLE14=Bailão dos Cafagestes nº 10 - Cilada
TTITLE15=Bailão dos Cafagestes nº 10 - Rabo de Araia
TTITLE16=Bailão dos Cafagestes nº 10 - Rodopiôu
TTITLE17=Bailão dos Cafagestes nº 10 - O gato comeu
TTITLE18=Bailão dos Cafagestes nº 10 - Tem Tem Tem
TTITLE19=Bailão dos Cafagestes nº 10 - Vida de pobre
TTITLE20=Bailão dos Cafagestes nº 10 - Vendaval
TTITLE21=Bailão dos Cafagestes nº 10 - Cobertor
EXTD=
EXTT0=
EXTT1=
EXTT2=
EXTT3=
EXTT4=
EXTT5=
EXTT6=
EXTT7=
EXTT8=
EXTT9=
EXTT10=
EXTT11=
EXTT12=
EXTT13=
EXTT14=
EXTT15=
EXTT16=
EXTT17=
EXTT18=
EXTT19=
EXTT20=
EXTT21=
PLAYORDER=
